<svg id="Capa_1" enable-background="new 0 0 512 512" height="512" viewBox="0 0 512 512" width="512" xmlns="http://www.w3.org/2000/svg" xmlns:xlink="http://www.w3.org/1999/xlink"><linearGradient id="SVGID_1_" gradientUnits="userSpaceOnUse" x1="287.229" x2="287.229" y1="512" y2="152"><stop offset="0" stop-color="#00b59c"/><stop offset="1" stop-color="#9cffac"/></linearGradient><linearGradient id="SVGID_2_" gradientUnits="userSpaceOnUse" x1="240.5" x2="240.5" y1="150.588" y2="0"><stop offset="0" stop-color="#c3ffe8"/><stop offset=".9973" stop-color="#f0fff4"/></linearGradient><g><g><g><path d="m206.02 347.381c-7.852-14.854-23.174-24.082-40.02-24.082s-32.168 9.229-40.371 24.741l-59.992 120.598c-9.921 19.944 4.585 43.362 26.86 43.362h147c22.276 0 36.782-23.421 26.859-43.365zm304.398 142.91-149.418-296.836v-26.455c0-8.291-6.709-15-15-15s-15 6.709-15 15v15h-165c-5.186 0-10.02 2.695-12.773 7.119-2.725 4.424-2.959 9.946-.645 14.59l150 300c2.549 5.083 7.735 8.291 13.418 8.291h181c5.186 0 10.02-2.695 12.773-7.119 2.725-4.424 2.96-9.946.645-14.59z" fill="url(#SVGID_1_)"/></g></g><g><g><path d="m181 167c0-8.401-6.599-15-15-15s-15 6.599-15 15v26.4l-149.491 296.999c-2.102 4.501-2.102 10.201.6 14.401 2.996 4.499 7.8 7.2 12.898 7.2h77.494l60-120.601c2.699-5.1 7.8-8.101 13.499-8.101s10.8 3.001 13.499 8.101l60 120.601h100.803l-159.302-318.6zm-136-15h60c24.814 0 45-20.186 45-45 0-20.273-13.477-37.456-31.934-43.066-5.624-18.457-22.792-31.934-43.066-31.934s-37.441 13.477-43.066 31.934c-18.457 5.61-31.934 22.793-31.934 43.066 0 24.814 20.186 45 45 45zm404.067-120.066c-5.625-18.457-22.793-31.934-43.067-31.934s-37.441 13.477-43.066 31.934c-18.457 5.61-31.934 22.793-31.934 43.066 0 24.814 20.186 45 45 45h60c24.814 0 45-20.186 45-45 0-20.273-13.476-37.456-31.933-43.066z" fill="url(#SVGID_2_)"/></g></g></g></svg>