<svg height="503pt" viewBox="-5 0 503 503.62192" width="503pt" xmlns="http://www.w3.org/2000/svg"><path d="m484.3125 279.480469v74.902343h-25.363281l-7.929688 140.859376h-75.296875l-8.320312-140.859376h-25.371094v-74.902343c.078125-26.234375 21.324219-47.480469 47.558594-47.558594h47.160156c26.234375.078125 47.484375 21.324219 47.5625 47.558594zm0 0" fill="#00acea"/><path d="m448.640625 180.960938c0 19.699218-15.96875 35.671874-35.667969 35.671874-19.703125 0-35.671875-15.972656-35.671875-35.671874 0-19.699219 15.96875-35.667969 35.671875-35.667969 19.699219 0 35.667969 15.96875 35.667969 35.667969zm0 0" fill="#00acea"/><path d="m235.808594 52.308594 131.261718-44.304688 22 65.179688-131.261718 44.304687zm0 0" fill="#00efd1"/><path d="m220.992188 22.882812-6.609376 68.480469-137.902343-13.320312 6.621093-68.480469zm0 0" fill="#00acea"/><path d="m150.589844 269.480469v74.902343h-25.367188l-7.921875 140.859376h-75.300781l-8.328125-140.859376h-25.359375v-74.902343c.074219-26.234375 21.324219-47.480469 47.558594-47.558594h47.160156c26.234375.078125 47.484375 21.324219 47.558594 47.558594zm0 0" fill="#00efd1"/><path d="m114.921875 170.960938c0 19.699218-15.972656 35.671874-35.671875 35.671874s-35.667969-15.972656-35.667969-35.671874c0-19.699219 15.96875-35.667969 35.667969-35.667969s35.671875 15.96875 35.671875 35.667969zm0 0" fill="#00efd1"/><g fill="#083863"><path d="m436.75 223.621094h-15.988281c20.375-3 35.878906-21.390625 35.878906-42.808594.011719-24.117188-19.53125-43.679688-43.652344-43.691406-24.117187-.007813-43.675781 19.535156-43.6875 43.652344 0 21.421874 15.5 39.847656 35.878907 42.847656h-15.589844c-4.722656.046875-9.421875.699218-13.980469 1.9375l-42.28125-125.191406 58.300781-19.644532c2.011719-.671875 3.667969-2.117187 4.609375-4.015625.945313-1.898437 1.09375-4.09375.414063-6.101562l-22-65.171875c-1.417969-4.183594-5.957032-6.425782-10.140625-5.011719l-131.257813 44.308594c-4.1875 1.414062-6.4375 5.953125-5.023437 10.140625l22 65.179687c1.414062 4.1875 5.953125 6.433594 10.140625 5.019531l57.800781-19.511718 42.796875 126.402344c-16.589844 10.082031-26.703125 28.105468-26.65625 47.519531v74.902343c-.074219 2.117188.703125 4.175782 2.148438 5.71875 1.449218 1.546876 3.453124 2.453126 5.570312 2.519532h17.828125l7.875 133.402344c.242187 4.242187 3.738281 7.566406 7.988281 7.597656h75.296875c4.257813-.03125 7.757813-3.367188 7.988281-7.621094l7.503907-133.378906h17.800781c4.460938-.113282 8.015625-3.773438 8-8.238282v-74.902343c0-30.632813-24.925781-55.859375-55.5625-55.859375zm-173.917969-116.269532-16.882812-50.019531 116.101562-39.191406 16.882813 50.019531zm122.46875 73.609376c0-15.28125 12.386719-27.667969 27.671875-27.667969 15.28125 0 27.667969 12.386719 27.667969 27.667969s-12.386719 27.671874-27.667969 27.671874c-15.277344-.015624-27.65625-12.394531-27.671875-27.671874zm91.011719 165.660156h-17.363281c-4.253907.03125-7.753907 3.371094-7.984375 7.621094l-7.507813 133.378906h-22.144531v-92.417969c0-4.417969-3.582031-8-8-8s-8 3.582031-8 8v92.417969h-22.050781l-7.875-133.398438c-.242188-4.242187-3.738281-7.566406-7.984375-7.601562h-17.089844v-67.140625c0-21.8125 17.464844-39.859375 39.277344-39.859375h47.160156c21.816406 0 39.5625 18.046875 39.5625 39.859375zm0 0"/><path d="m125.289062 486 7.496094-133.378906h17.804688c2.117187-.066406 4.121094-.972656 5.570312-2.519532 1.449219-1.542968 2.222656-3.601562 2.152344-5.71875v-74.902343c.054688-15.710938-6.574219-30.707031-18.234375-41.242188l13.078125-134.746093 60.421875 5.832031c.253906.027343.53125.039062.785156.039062 4.125 0 7.578125-3.128906 7.976563-7.230469l6.613281-68.484374c.421875-4.394532-2.796875-8.304688-7.195313-8.730469l-137.886718-13.320313c-4.398438-.421875-8.308594 2.796875-8.734375 7.195313l-6.617188 68.480469c-.425781 4.394531 2.792969 8.304687 7.191407 8.730468l61.589843 5.949219-12.21875 126.394531c-6.949219-3.074218-14.453125-4.679687-22.050781-4.726562h-15.988281c20.375-3 35.878906-21.390625 35.878906-42.808594.007813-24.117188-19.535156-43.679688-43.652344-43.691406-24.117187-.007813-43.679687 19.535156-43.6875 43.652344 0 21.421874 15.5 39.847656 35.878907 42.847656h-15.589844c-30.636719 0-55.558594 25.226562-55.558594 55.859375v74.902343c-.019531 4.464844 3.535156 8.125 8 8.238282h17.816406l7.882813 133.402344c.242187 4.242187 3.738281 7.566406 7.988281 7.597656h75.300781c4.257813-.03125 7.753907-3.371094 7.988281-7.621094zm-40.078124-415.152344 5.082031-52.554687 121.964843 11.78125-5.070312 52.554687zm-33.628907 100.113282c0-15.28125 12.386719-27.667969 27.667969-27.667969s27.671875 12.386719 27.671875 27.667969-12.390625 27.671874-27.671875 27.671874c-15.273438-.015624-27.652344-12.394531-27.667969-27.671874zm58.15625 306.660156h-22.425781v-92.417969c0-4.417969-3.582031-8-8-8s-8 3.582031-8 8v92.417969h-21.769531l-7.886719-133.398438c-.242188-4.242187-3.734375-7.570312-7.984375-7.601562h-17.359375v-67.140625c0-21.8125 17.746094-39.859375 39.558594-39.859375h47.160156c21.8125 0 39.28125 18.046875 39.28125 39.859375v67.140625h-17.089844c-4.257812.03125-7.757812 3.371094-7.988281 7.621094zm0 0"/></g></svg>