<?xml version="1.0" encoding="iso-8859-1"?>
<!-- Generator: Adobe Illustrator 19.0.0, SVG Export Plug-In . SVG Version: 6.00 Build 0)  -->
<svg version="1.1" id="Capa_1" xmlns="http://www.w3.org/2000/svg" xmlns:xlink="http://www.w3.org/1999/xlink" x="0px" y="0px"
	 viewBox="0 0 512 512" style="enable-background:new 0 0 512 512;" xml:space="preserve">
<path style="fill:#93482B;" d="M262.839,207.217c0,10.915,0,272.482,0,290.875c0,7.682,6.227,13.908,13.908,13.908
	c7.682,0,13.908-6.227,13.908-13.908c0-18.393,0-279.961,0-290.875L262.839,207.217L262.839,207.217z"/>
<path style="fill:#F7CF9C;" d="M335.292,350.517c-1.615-9.572-10.202-16.407-19.909-16.407c-18.085,0-40.545,0-64.186,0
	c-4.674,0-6.988-5.625-3.71-8.956c33.778-34.327,2.268-73.526-15.167-45.525c-18.979,30.482-64.642,44.777-64.642,44.777
	c-5.365,3.637-10.437,7.658-15.031,12.334c-5.381,5.477-12.69,8.63-20.368,8.63H108.31v117.464h29.737
	c8.189,0,16.223,2.585,22.683,7.619c30.152,23.496,58.666,15.58,73.891,17.212h60.507c9.897,0,18.481-7.359,19.436-17.209
	c0.955-9.852-5.707-18.416-14.769-20.486v-0.479h3.96c9.897,0,18.481-7.359,19.436-17.209c1.099-11.331-7.878-20.965-18.995-20.965
	h2.148c9.897,0,18.481-7.359,19.436-17.21c1.098-11.331-7.879-20.964-18.996-20.964l9.542-0.098
	C327.991,373.047,337.32,362.532,335.292,350.517z"/>
<path style="fill:#70B5E8;" d="M435.443,0H118.052c-7.557,0-13.74,6.183-13.74,13.74v182.828c0,7.557,6.184,13.74,13.74,13.74
	h317.391c7.557,0,13.74-6.183,13.74-13.74V13.74C449.183,6.183,443,0,435.443,0z"/>
<path style="fill:#52A5D8;" d="M135.219,196.568V13.74c0-7.557,6.183-13.74,13.74-13.74h-30.907c-7.557,0-13.74,6.183-13.74,13.74
	v182.828c0,7.557,6.183,13.74,13.74,13.74h30.907C141.403,210.308,135.219,204.125,135.219,196.568z"/>
<g>
	<path style="fill:#9FD3F4;" d="M332.705,58.28H153.271c-4.267,0-7.727-3.459-7.727-7.727s3.459-7.727,7.727-7.727h179.434
		c4.267,0,7.727,3.459,7.727,7.727S336.972,58.28,332.705,58.28z"/>
	<path style="fill:#9FD3F4;" d="M395.379,58.28h-33.141c-4.267,0-7.727-3.459-7.727-7.727s3.459-7.727,7.727-7.727h33.141
		c4.267,0,7.727,3.459,7.727,7.727S399.646,58.28,395.379,58.28z"/>
	<path style="fill:#9FD3F4;" d="M332.705,132.454H153.271c-4.267,0-7.727-3.459-7.727-7.727c0-4.267,3.459-7.727,7.727-7.727
		h179.434c4.267,0,7.727,3.46,7.727,7.727C340.432,128.995,336.972,132.454,332.705,132.454z"/>
	<path style="fill:#9FD3F4;" d="M395.379,132.454h-33.141c-4.267,0-7.727-3.459-7.727-7.727c0-4.267,3.459-7.727,7.727-7.727h33.141
		c4.267,0,7.727,3.46,7.727,7.727C403.106,128.995,399.646,132.454,395.379,132.454z"/>
	<path style="fill:#9FD3F4;" d="M395.379,95.367H215.946c-4.267,0-7.727-3.459-7.727-7.727c0-4.267,3.459-7.727,7.727-7.727h179.433
		c4.267,0,7.727,3.459,7.727,7.727S399.646,95.367,395.379,95.367z"/>
	<path style="fill:#9FD3F4;" d="M186.413,95.367h-33.141c-4.267,0-7.727-3.459-7.727-7.727c0-4.267,3.459-7.727,7.727-7.727h33.141
		c4.267,0,7.727,3.459,7.727,7.727S190.68,95.367,186.413,95.367z"/>
	<path style="fill:#9FD3F4;" d="M395.379,169.542H215.946c-4.267,0-7.727-3.459-7.727-7.727c0-4.267,3.459-7.727,7.727-7.727
		h179.433c4.267,0,7.727,3.459,7.727,7.727C403.106,166.082,399.646,169.542,395.379,169.542z"/>
	<path style="fill:#9FD3F4;" d="M186.413,169.542h-33.141c-4.267,0-7.727-3.459-7.727-7.727c0-4.267,3.459-7.727,7.727-7.727h33.141
		c4.267,0,7.727,3.459,7.727,7.727C194.14,166.082,190.68,169.542,186.413,169.542z"/>
</g>
<path style="fill:#EAB883;" d="M142.09,399.11c0-28.84,10.131-55.149,26.794-75.104c-0.78,0.266-1.206,0.399-1.206,0.399
	c-5.365,3.637-10.438,7.658-15.031,12.334c-5.381,5.477-12.69,8.63-20.368,8.63H108.31v117.464h29.737
	c16.671,0,22.12,8.58,34.027,15.034C153.523,457.53,142.09,429.748,142.09,399.11z"/>
<path style="fill:#EFEFEF;" d="M87.109,319.019c-13.416,0-24.292,10.875-24.292,24.292v119.165
	c0,13.416,10.875,24.292,24.292,24.292s24.292-10.875,24.292-24.292V343.31C111.401,329.894,100.525,319.019,87.109,319.019z"/>
<path style="fill:#DDDDDD;" d="M87.109,404.436c-13.416,0-24.292-10.875-24.292-24.292v82.33c0,13.416,10.875,24.292,24.292,24.292
	s24.292-10.875,24.292-24.292v-82.33C111.401,393.561,100.526,404.436,87.109,404.436z"/>
<g>
</g>
<g>
</g>
<g>
</g>
<g>
</g>
<g>
</g>
<g>
</g>
<g>
</g>
<g>
</g>
<g>
</g>
<g>
</g>
<g>
</g>
<g>
</g>
<g>
</g>
<g>
</g>
<g>
</g>
</svg>
