<svg
   xmlns:dc="http://purl.org/dc/elements/1.1/"
   xmlns:cc="http://creativecommons.org/ns#"
   xmlns:rdf="http://www.w3.org/1999/02/22-rdf-syntax-ns#"
   xmlns:svg="http://www.w3.org/2000/svg"
   xmlns="http://www.w3.org/2000/svg"
   xmlns:sodipodi="http://sodipodi.sourceforge.net/DTD/sodipodi-0.dtd"
   xmlns:inkscape="http://www.inkscape.org/namespaces/inkscape"
   width="150px"
   viewBox="0 0 484 141.02292"
   version="1.1"
   id="svg5670"
   inkscape:version="0.92.4 (5da689c313, 2019-01-14)"
   sodipodi:docname="kallipolis.svg">
  <defs
     id="defs5664" />
  <sodipodi:namedview
     id="base"
     pagecolor="#ffffff"
     bordercolor="#666666"
     borderopacity="1.0"
     inkscape:pageopacity="0.0"
     inkscape:pageshadow="2"
     inkscape:zoom="0.49497475"
     inkscape:cx="810.84222"
     inkscape:cy="143.22557"
     inkscape:document-units="mm"
     inkscape:current-layer="layer1"
     showgrid="false"
     fit-margin-top="0"
     fit-margin-left="0"
     fit-margin-right="0"
     fit-margin-bottom="0"
     inkscape:window-width="1920"
     inkscape:window-height="1017"
     inkscape:window-x="-8"
     inkscape:window-y="-8"
     inkscape:window-maximized="1" />
  <metadata
     id="metadata5667">
    <rdf:RDF>
      <cc:Work
         rdf:about="">
        <dc:format>image/svg+xml</dc:format>
        <dc:type
           rdf:resource="http://purl.org/dc/dcmitype/StillImage" />
        <dc:title></dc:title>
      </cc:Work>
    </rdf:RDF>
  </metadata>
  <g
     inkscape:label="Layer 1"
     inkscape:groupmode="layer"
     id="layer1"
     transform="translate(-2.6080407,-99.745697)">
    <g
       id="g840"
       transform="translate(-141.06148,-0.0094)">
      <g
         transform="translate(136.52577,14.421783)"
         id="g6226">
        <path
           inkscape:connector-curvature="0"
           id="path6242"
           d="m 22.616028,223.1867 c -5.956911,-3.57195 -7.414905,-4.8733 -10.225894,-9.12723 -1.967362,-2.97724 -3.1657937,-5.44156 -4.3356208,-8.91526 l -0.9107625,-2.70444 v -45.19176 -45.19176 h 3.2141393 3.21414 l -0.177128,12.76614 -0.177128,12.76615 6.612967,7.67292 6.612969,7.67291 0.0073,25.86302 0.0073,25.86302 h 8.202083 8.202084 l -0.0011,-9.59114 -0.0011,-9.59115 -1.652667,-0.85508 c -2.209959,-1.1435 -4.098298,-2.8515 -5.224383,-4.7256 -0.914643,-1.5222 -0.927164,-1.58399 -1.01723,-5.01981 -0.112734,-4.3006 0.13299,-5.35031 2.484199,-10.61223 3.595915,-8.04753 5.758225,-11.65935 7.564289,-12.63504 0.935064,-0.50515 0.953545,-0.505 1.843617,0.0148 1.493245,0.87202 2.77653,2.8554 5.894679,9.11048 3.940259,7.90427 4.268057,8.93276 4.253383,13.34542 -0.0099,2.97908 -0.09537,3.65186 -0.638342,5.02513 -0.825775,2.08853 -2.969903,4.24921 -5.33827,5.37948 -1.20455,0.57485 -1.80485,1.02449 -1.914618,1.4341 -0.08794,0.32819 -0.161525,4.67459 -0.163512,9.65868 l -0.0036,9.06197 h 5.395831 5.39583 l 0.09427,-7.12441 c 0.109905,-8.30565 -0.08995,-7.6902 3.2903,-10.13234 4.84722,-3.50197 16.901933,-10.25991 18.301473,-10.25991 0.748474,0 2.912499,1.14663 8.665001,4.59123 6.928831,4.149 11.504093,7.26902 11.812853,8.05556 0.15816,0.40291 0.34301,3.80214 0.42376,7.79227 l 0.14323,7.0776 h 5.3856 5.3856 v -9.63235 -9.63236 l -1.70117,-0.79607 c -2.16769,-1.01438 -3.82903,-2.54824 -4.85102,-4.47877 -2.44176,-4.61245 -2.19029,-8.0103 1.15554,-15.6138 5.33094,-12.11471 8.13007,-15.1782 10.85162,-11.87648 1.67584,2.03308 6.37835,11.42919 8.16328,16.31108 0.87909,2.40437 1.16839,5.83571 0.67188,7.96893 -0.78334,3.36553 -2.99744,6.11146 -6.20195,7.69168 l -1.73818,0.85713 v 9.60051 9.6005 h 4.89479 4.89479 v -8.02664 c 0,-4.41466 0.0786,-11.78637 0.17455,-16.38159 l 0.17456,-8.35493 6.42664,-4.9218 6.42665,-4.9218 0.0795,-8.7574 0.0795,-8.7574 1.01311,-0.87545 c 0.973,-0.84079 19.05906,-12.22818 24.25557,-15.27185 3.5606,-2.0855 7.37885,-3.89989 8.20705,-3.89989 0.38819,0 0.92351,0.24058 1.1896,0.53461 0.42469,0.46927 0.51025,1.28569 0.7001,6.68072 0.11896,3.38038 0.29128,18.71831 0.38295,34.0843 l 0.16666,27.93817 6.51644,0.17323 c 3.58404,0.0953 8.98698,0.1735 12.00654,0.17381 l 5.4901,5.8e-4 v -36.6448 -36.64479 h 3.175 3.175 v 40.71642 40.71642 l -1.06962,3.10204 c -1.66619,4.83213 -3.85569,8.70428 -6.88167,12.17032 -1.81212,2.07565 -3.15618,3.06822 -8.44157,6.23401 l -4.39007,2.62953 H 108.06987 27.901845 Z m 167.487102,-4.74379 c 2.69122,-1.63767 5.50601,-3.95368 6.9387,-5.70917 2.47332,-3.03059 5.03939,-8.17838 5.57408,-11.18218 l 0.24727,-1.38907 h -12.2257 -12.22569 l -0.17198,3.97337 c -0.30337,7.00895 0.10572,6.75735 -10.89085,6.69797 -11.91344,-0.0643 -11.59167,0.11169 -11.73035,-6.41683 l -0.0887,-4.17475 -5.17388,-0.18409 c -5.51129,-0.1961 -6.63792,-0.43301 -7.26133,-1.52691 -0.27597,-0.48427 -0.3806,-3.65828 -0.48431,-14.6926 l -0.13229,-14.07489 -3.4675,2.60781 -3.4675,2.60781 -0.16283,16.09728 c -0.0896,8.85351 -0.27402,16.62875 -0.40992,17.27832 -0.33967,1.62352 -0.96409,2.04441 -3.36707,2.26959 -1.10442,0.10349 -8.75346,0.20288 -16.99786,0.22086 -16.107985,0.0351 -16.548675,0.002 -17.406224,-1.30674 -0.450178,-0.68706 -0.858232,-6.46428 -0.879496,-12.45198 -0.01773,-4.99092 0.591891,-4.20267 -6.448097,-8.33753 -3.372054,-1.98054 -6.744978,-3.91008 -7.49539,-4.28787 l -1.364382,-0.68688 -4.985618,2.86544 c -2.742088,1.576 -6.05718,3.51577 -7.366867,4.31061 l -2.38125,1.44515 -0.137428,7.78604 c -0.142536,8.07549 -0.192807,8.43749 -1.366705,9.84161 l -0.612534,0.73267 -19.84375,0.25445 c -10.914063,0.13994 -21.447027,0.25673 -23.406587,0.25952 l -3.562837,0.005 1.44617,1.47256 c 2.016787,2.05357 4.515822,4.06247 7.002421,5.62901 l 2.116666,1.33349 80.036458,0.0104 80.03646,0.0105 z M 20.372917,179.90731 v -24.7531 l -3.217545,-3.70253 c -2.274141,-2.61693 -3.281457,-3.60177 -3.43553,-3.35888 -0.253425,0.39952 -0.253801,42.17135 -5.29e-4,50.26215 0.09418,3.00767 0.259218,5.55628 0.366752,5.66357 0.327682,0.32694 2.076868,0.57942 4.236255,0.61146 l 2.050597,0.0304 z m 152.135413,22.50414 v -2.24896 h -5.42395 -5.42396 v 2.24896 2.24896 h 5.42396 5.42395 z m -16.93333,-25.4 c 0,-9.38609 -0.0893,-17.05818 -0.19844,-17.04907 -0.10914,0.009 -1.68672,1.1757 -3.50573,2.59244 l -3.30729,2.5759 -0.0684,14.47318 -0.0684,14.47318 h 3.57414 3.57413 z m 16.93316,8.13594 c -1e-4,-4.91133 -0.0791,-18.64802 -0.17559,-30.52599 l -0.1754,-21.5963 -3.06556,1.84881 c -1.68606,1.01685 -6.94782,4.27522 -11.69279,7.24082 l -8.62722,5.39202 -0.16514,1.58002 c -0.0908,0.86902 -0.0902,3.05876 0.001,4.86611 l 0.16655,3.28608 3.61472,-2.69972 c 5.52783,-4.12856 6.91817,-4.58311 8.31124,-2.71725 0.50558,0.67717 0.56345,1.23174 0.7314,7.00928 0.10031,3.45066 0.19279,12.361 0.20552,19.80076 0.0127,7.43975 0.0962,13.89239 0.18561,14.3392 0.20514,1.02571 0.20358,1.02543 5.98908,1.06982 l 4.69643,0.036 z M 47.698378,179.2445 c 1.151069,-0.31965 2.690206,-1.57851 3.247429,-2.65606 1.002197,-1.93803 -0.04523,-5.86566 -3.521003,-13.20303 l -1.316019,-2.77812 -2.026597,4.10104 c -3.468434,7.01875 -4.02262,9.84038 -2.457318,12.51137 1.117856,1.90748 3.561908,2.72228 6.073508,2.0248 z m 71.651842,-0.55805 c 3.34226,-1.87846 3.02427,-5.68359 -1.22897,-14.70572 -0.77177,-1.63711 -1.51874,-2.97657 -1.65995,-2.97657 -0.31791,0 -2.4179,4.28328 -3.76019,7.66951 -1.90475,4.80518 -1.91377,7.03648 -0.0365,9.0399 1.75548,1.87349 4.39883,2.25814 6.68565,0.97288 z M 82.285417,140.71858 c -3.069016,-0.30675 -3.704166,-0.7557 -3.704166,-2.61827 0,-2.44669 0.863957,-2.93788 5.601147,-3.18449 3.257402,-0.16957 7.752297,0.18845 8.694108,0.6925 0.558561,0.29893 1.050578,1.60282 1.050578,2.78414 0,1.32918 -0.739849,2.02503 -2.404401,2.26139 -1.416981,0.20121 -7.44895,0.24348 -9.237266,0.0647 z M 60.015708,140.2376 c -1.638512,-0.91545 -1.563034,-3.92101 0.121015,-4.81876 0.727575,-0.38786 1.705578,-0.45465 6.802861,-0.46456 3.274219,-0.006 6.276221,0.0789 6.671117,0.18949 0.456374,0.1278 0.967078,0.6261 1.401598,1.36756 0.637358,1.08756 0.658382,1.22612 0.310714,2.04789 -0.81765,1.93266 -0.815584,1.93214 -8.080005,2.00633 -5.37772,0.0549 -6.644952,-0.003 -7.2273,-0.32795 z m -4.320916,-14.65311 c -3.553013,-1.02275 -6.570784,-3.27861 -8.613124,-6.4385 -3.65262,-5.65132 -2.755352,-13.31606 2.130833,-18.20224 1.504542,-1.504543 4.054488,-3.103516 5.808456,-3.64226 2.218425,-0.681405 6.740845,-0.611227 9.172263,0.142332 3.724322,1.154266 6.819609,3.888408 8.610663,7.605998 2.006174,4.16411 1.934059,8.46419 -0.215037,12.82224 -1.775709,3.60086 -5.678985,6.80759 -9.496714,7.80198 -2.023819,0.52713 -5.396859,0.4863 -7.39734,-0.0896 z m 7.707397,-6.58932 c 1.387576,-0.7204 3.312303,-2.63679 3.961908,-3.94474 0.386258,-0.77771 0.501529,-1.58752 0.501529,-3.52335 0,-2.21742 -0.08729,-2.69129 -0.740929,-4.02236 -0.997087,-2.03044 -2.976454,-3.78882 -4.891775,-4.34562 -4.091149,-1.18933 -8.655249,0.71526 -10.412418,4.34509 -0.79271,1.63752 -0.966901,4.57405 -0.37673,6.3509 0.794552,2.39217 2.943469,4.70353 5.130872,5.51873 1.496978,0.5579 5.445424,0.33892 6.827543,-0.37865 z m 20.161436,0.34035 c -1.638512,-0.91545 -1.563034,-3.92101 0.121015,-4.81876 0.727575,-0.38787 1.705578,-0.45465 6.802861,-0.46456 3.274218,-0.006 6.276221,0.0789 6.671117,0.18949 0.456374,0.1278 0.967078,0.6261 1.401598,1.36756 0.637357,1.08756 0.658381,1.22612 0.310713,2.04789 -0.817649,1.93266 -0.815583,1.93214 -8.080004,2.00633 -5.37772,0.0549 -6.644952,-0.003 -7.2273,-0.32795 z m 46.037495,0 c -1.63851,-0.91545 -1.56303,-3.92101 0.12102,-4.81876 0.72757,-0.38787 1.70558,-0.45465 6.80286,-0.46456 3.27422,-0.006 6.27622,0.0789 6.67112,0.18949 0.45637,0.1278 0.96708,0.6261 1.4016,1.36756 0.63735,1.08756 0.65838,1.22612 0.31071,2.04789 -0.81765,1.93266 -0.81558,1.93214 -8.08001,2.00633 -5.37771,0.0549 -6.64495,-0.003 -7.2273,-0.32795 z m -23.28333,-0.26458 c -1.63851,-0.91545 -1.56303,-3.92101 0.12102,-4.81876 0.72757,-0.38787 1.70557,-0.45466 6.80286,-0.46457 3.27422,-0.006 6.27622,0.0789 6.67111,0.18949 0.45638,0.12781 0.96708,0.62611 1.4016,1.36756 0.63736,1.08757 0.65838,1.22612 0.31072,2.04789 -0.81765,1.93266 -0.81559,1.93215 -8.08001,2.00633 -5.37772,0.0549 -6.64495,-0.003 -7.2273,-0.32794 z m 46.83125,0 c -1.63851,-0.91545 -1.56303,-3.92101 0.12102,-4.81876 0.72757,-0.38787 1.70557,-0.45466 6.80286,-0.46457 3.27422,-0.006 6.27622,0.0789 6.67111,0.18949 0.45638,0.12781 0.96708,0.62611 1.4016,1.36756 0.63736,1.08757 0.65838,1.22612 0.31072,2.04789 -0.81765,1.93266 -0.81559,1.93215 -8.08001,2.00633 -5.37772,0.0549 -6.64495,-0.003 -7.2273,-0.32794 z m -71.24548,-9.92219 c -1.917454,-0.36907 -2.789777,-2.18741 -1.886945,-3.9333 0.725649,-1.40324 1.196078,-1.47936 9.72756,-1.57394 l 7.85563,-0.0871 0.58166,-1.76836 c 1.221309,-3.713026 2.484015,-5.638537 4.832865,-7.369689 2.35647,-1.736773 4.36188,-2.272811 8.41012,-2.247998 l 3.34216,0.02048 2.13687,-1.985193 c 3.8502,-3.576904 6.74828,-4.870336 10.91259,-4.870336 4.31347,0 8.16744,1.962462 10.9116,5.55625 l 1.3132,1.719791 4.14562,0.156345 c 5.37286,0.202629 6.3217,0.586756 9.44661,3.824357 1.8945,1.962806 2.27184,2.237006 3.07848,2.237006 2.3431,0 5.06123,1.577007 6.41534,3.722057 l 0.63056,0.99888 9.33637,0.0915 c 7.96773,0.0781 9.47868,0.15543 10.30725,0.52755 1.14407,0.51382 1.54265,1.15076 1.54265,2.46521 0,1.29463 -0.35187,1.86698 -1.38348,2.25035 -1.14844,0.4268 -11.72763,0.65327 -18.76949,0.4018 l -5.44093,-0.1943 -0.74799,-1.56497 c -0.4114,-0.86074 -0.93331,-1.72786 -1.15982,-1.92693 -0.261,-0.22939 -1.30863,-0.40266 -2.86045,-0.4731 -2.48301,-0.11271 -3.56588,-0.52808 -4.03781,-1.54883 -1.01745,-2.20068 -1.53953,-3.03615 -2.33219,-3.732115 l -0.93021,-0.816729 -2.7985,0.136183 c -1.92755,0.0938 -3.32175,0.320112 -4.47975,0.727168 -1.43732,0.505243 -1.82656,0.547453 -2.68278,0.290923 -1.13671,-0.340569 -1.58198,-0.910109 -2.21847,-2.837646 -1.3428,-4.066558 -4.28427,-6.201058 -8.07211,-5.857589 -2.99045,0.271164 -4.99089,1.610601 -7.06501,4.730512 -0.67346,1.013034 -1.51994,2.035474 -1.88106,2.272088 -0.73636,0.482483 -2.73416,0.521187 -4.60767,0.08927 -2.17529,-0.501492 -4.49084,-0.348996 -5.98171,0.393935 -2.19808,1.09535 -3.34155,3.02619 -4.04232,6.8258 -0.4284,2.32282 -1.01368,3.00327 -2.8803,3.34862 -1.635432,0.30259 -17.097912,0.30425 -18.66814,0.002 z"
           style="fill:#000000;fill-opacity:1;stroke-width:0.26458332"
           sodipodi:nodetypes="scccccccccccccccccccssscscsccccccscsccscccccscscscccccccsccccccscsccscccccccccccsccccscsccccscccscscccccccccscccccsccsccccccccccscccccccccccccccscccccccscccccccccscsccccccsscssccsscccccsccscccccccccccccssssccccccscssccccccccccccccccccccccssccccccsscccccccscccssccscsccccscscccscccssccscccscccc" />
      </g>
    </g>
    <g
       id="g844"
       transform="translate(7.3783318,-1.7333094)">
      <text
         id="text831"
         y="190.26036"
         x="184.9507"
         style="font-style:normal;font-variant:normal;font-weight:normal;font-stretch:normal;font-size:50.79999924px;line-height:1.25;font-family:Impact;-inkscape-font-specification:Impact;letter-spacing:0px;word-spacing:0px;fill:#000000;fill-opacity:1;stroke:none;stroke-width:0.26458332"
         xml:space="preserve"><tspan
           style="font-style:normal;font-variant:normal;font-weight:normal;font-stretch:normal;font-size:63.5px;font-family:spartan;-inkscape-font-specification:spartan;stroke-width:0.26458332"
           y="190.26036"
           x="184.9507"
           id="tspan829"
           sodipodi:role="line">kallipolis</tspan></text>
    </g>
  </g>
</svg>
